<svg width="32" height="32" viewBox="0 0 32 32" fill="none" xmlns="http://www.w3.org/2000/svg">
  <!-- 背景圆形 -->
  <circle cx="16" cy="16" r="16" fill="url(#gradient)"/>
  
  <!-- 渐变定义 -->
  <defs>
    <linearGradient id="gradient" x1="0%" y1="0%" x2="100%" y2="100%">
      <stop offset="0%" style="stop-color:#667eea;stop-opacity:1" />
      <stop offset="100%" style="stop-color:#764ba2;stop-opacity:1" />
    </linearGradient>
  </defs>
  
  <!-- 字母 L -->
  <path d="M8 8 L8 22 L14 22 L14 20 L10 20 L10 8 Z" fill="white"/>
  
  <!-- 字母 G -->
  <path d="M18 8 C15.5 8 14 9.5 14 12 L14 20 C14 22.5 15.5 24 18 24 L21 24 C23.5 24 25 22.5 25 20 L25 16 L21 16 L21 18 L23 18 L23 20 C23 21 22.5 22 21 22 L18 22 C17 22 16 21 16 20 L16 12 C16 11 17 10 18 10 L21 10 C22.5 10 23 11 23 12 L25 12 C25 9.5 23.5 8 21 8 Z" fill="white"/>
</svg> 